<svg width="167" height="48" viewBox="0 0 167 48" fill="none" xmlns="http://www.w3.org/2000/svg">
<g id="Logo">
<g id="Text">
<path id="Fill 708" fill-rule="evenodd" clip-rule="evenodd" d="M29.8498 17.8321C33.3203 18.1228 36.1029 19.209 36.1029 22.0975C36.1029 24.7202 34.0629 26.7067 28.7633 26.7067C26.4042 26.7067 24.6565 26.4143 22.5367 25.6736C22.0068 25.4875 21.716 25.647 21.4236 26.1768L21 26.0174L22.6696 21.938C24.3907 23.2087 26.0869 23.7136 28.6835 23.7136C31.1473 23.7136 32.473 23.0243 32.473 22.1506C32.473 21.2221 30.8565 20.9846 27.0937 20.7189C24.4705 20.5345 21.7675 19.5794 21.7675 16.8521C21.7675 14.07 24.6034 12.4539 28.2068 12.4539C30.0608 12.4539 32.5262 12.9306 34.3004 13.5667C34.8835 13.7527 35.2274 13.5933 35.4932 13.1697L35.8903 13.3558L34.2755 16.7192C32.7903 16.0034 30.3266 15.4486 28.3928 15.4486C26.9359 15.4486 25.3709 15.7127 25.3709 16.5332C25.3709 17.3288 26.2996 17.5398 29.8498 17.8321Z" fill="#272727"/>
<path id="Fill 710" fill-rule="evenodd" clip-rule="evenodd" d="M37.8592 26.0919C38.414 26.0919 38.733 25.7747 38.733 25.1917V16.2473C38.733 15.6643 38.414 15.3471 37.8326 15.3471V14.8969H43.1803V15.3471C42.5972 15.3471 42.2799 15.6643 42.2799 16.2473V25.1917C42.2799 25.7747 42.5972 26.0919 43.1537 26.0919V26.542H37.8592V26.0919Z" fill="#272727"/>
<path id="Fill 712" fill-rule="evenodd" clip-rule="evenodd" d="M59.1365 23.1551C59.1365 25.4306 57.4702 26.5418 54.0812 26.5418H45.7962V16.2471C45.7962 15.6924 45.4524 15.3485 44.8958 15.3485V14.8984H53.4466C56.9403 14.8984 58.7129 15.9299 58.7129 17.7835C58.7129 18.9744 57.9985 19.873 56.9669 20.2966C58.3956 20.7467 59.1365 21.7001 59.1365 23.1551ZM49.3419 19.6094H53.55C54.7678 19.6094 55.2977 19.239 55.2977 18.3919C55.2977 17.4667 54.6631 17.1213 53.0217 17.1213H49.3419V19.6094ZM55.4821 22.8387C55.4821 21.965 54.8741 21.5149 53.2859 21.5149H49.3419V24.3203H53.2593C54.6631 24.3203 55.4821 23.8436 55.4821 22.8387Z" fill="#272727"/>
<path id="Fill 714" fill-rule="evenodd" clip-rule="evenodd" d="M73.5456 23.3131V26.542H61.5808V16.2207C61.5808 15.666 61.2635 15.3471 60.6821 15.3471V14.8969H73.1219V18.1259H72.6451C72.6451 17.5445 72.3278 17.2273 71.773 17.2273H65.1543V19.3699H71.6135V21.5923H65.1543V24.2133H72.1966C72.7515 24.2133 73.0688 23.8961 73.0688 23.3131H73.5456Z" fill="#272727"/>
<path id="Fill 716" fill-rule="evenodd" clip-rule="evenodd" d="M89.0957 26.0668V26.5435H84.8876L81.8956 22.2034H79.6462V26.5435H76.0727V16.2488C76.0727 15.7455 75.6757 15.3485 75.1723 15.3485V14.8984H83.6167C86.4227 14.8984 88.3282 16.3534 88.3282 18.3649C88.3282 19.9528 87.137 21.25 85.4691 21.833L88.0375 25.5369C88.3016 25.9339 88.6455 26.0668 89.0957 26.0668ZM79.6475 19.9535H82.5332C83.9088 19.9535 84.6231 19.4519 84.6231 18.5251C84.6231 17.5451 83.9885 17.1232 82.613 17.1232H79.6475V19.9535Z" fill="#272727"/>
<path id="Fill 718" fill-rule="evenodd" clip-rule="evenodd" d="M90.532 26.0919C91.0869 26.0919 91.4059 25.7747 91.4059 25.1917V16.2473C91.4059 15.6643 91.0869 15.3471 90.5054 15.3471V14.8969H95.8532V15.3471C95.2701 15.3471 94.9527 15.6643 94.9527 16.2473V25.1917C94.9527 25.7747 95.2701 26.0919 95.8266 26.0919V26.542H90.532V26.0919Z" fill="#272727"/>
<path id="Fill 720" fill-rule="evenodd" clip-rule="evenodd" d="M112.724 26.0919V26.542H108.515L107.429 24.1602H102.163L101.078 26.542H97.1854V26.0919C97.6356 26.0919 97.9795 25.9059 98.139 25.5886L102.03 17.1725C102.216 16.8037 102.32 16.3802 102.32 16.0347C102.32 15.5862 102.163 15.3471 101.872 15.3471V14.8969H106.848L111.665 25.5355C111.823 25.8793 112.22 26.0919 112.724 26.0919ZM106.583 22.2809L104.836 18.3909L103.036 22.2809H106.583Z" fill="#272727"/>
<path id="Fill 722" fill-rule="evenodd" clip-rule="evenodd" d="M127.305 14.8984V15.3485C126.75 15.3485 126.405 15.6658 126.405 16.2488V26.5418H123.864L117.301 19.4761V26.5418H114.122V16.2488C114.122 15.6658 113.805 15.3485 113.224 15.3485V14.8984H117.644L123.228 20.9062V14.8984H127.305Z" fill="#272727"/>
<path id="Fill 724" fill-rule="evenodd" clip-rule="evenodd" d="M46.2236 32.9908V33.4675C45.4279 33.5738 44.873 33.9708 44.7135 34.5272L41.2696 46.9247H37.1629L33.6641 37.786L30.3797 46.9247H26.273L22.0865 34.1302C21.9536 33.7067 21.5565 33.4675 21 33.4675V32.9908H25.557L28.4991 41.9186L31.8899 32.9908H35.6262L39.07 41.8388L41.5603 32.9908H46.2236Z" fill="#272727"/>
<path id="Fill 726" fill-rule="evenodd" clip-rule="evenodd" d="M60.0463 43.6896V46.9185H48.0816V36.5972C48.0816 36.0424 47.7643 35.7235 47.1812 35.7235V35.2734H59.6227V38.5023H59.1459C59.1459 37.921 58.8286 37.6038 58.2737 37.6038H51.6551V39.7464H58.1142V41.9688H51.6551V44.5898H58.6973C59.2522 44.5898 59.5695 44.2726 59.5695 43.6896H60.0463Z" fill="#272727"/>
<path id="Fill 728" fill-rule="evenodd" clip-rule="evenodd" d="M63.1164 36.6238C63.1164 36.0408 62.7991 35.7235 62.2159 35.7235V35.2734H66.6898V44.2726H72.5127C73.0942 44.2726 73.4132 43.9537 73.4132 43.3723H73.8634V46.9185H63.1164V36.6238Z" fill="#272727"/>
<path id="Fill 730" fill-rule="evenodd" clip-rule="evenodd" d="M76.4054 36.6238C76.4054 36.0408 76.0881 35.7235 75.505 35.7235V35.2734H79.9789V44.2726H85.8018C86.3849 44.2726 86.7022 43.9537 86.7022 43.3723H87.1524V46.9185H76.4054V36.6238Z" fill="#272727"/>
<path id="Fill 732" fill-rule="evenodd" clip-rule="evenodd" d="M103.057 35.2751V35.7253C102.502 35.7253 102.156 36.0425 102.156 36.6255V46.9186H99.6162L93.0524 39.8528V46.9186H89.876V36.6255C89.876 36.0425 89.5586 35.7253 88.9755 35.7253V35.2751H93.3963L98.9799 41.2829V35.2751H103.057Z" fill="#272727"/>
<path id="Fill 734" fill-rule="evenodd" clip-rule="evenodd" d="M117.779 43.6896V46.9185H105.814V36.5972C105.814 36.0424 105.497 35.7235 104.916 35.7235V35.2734H117.355V38.5023H116.879C116.879 37.921 116.561 37.6038 116.006 37.6038H109.388V39.7464H115.847V41.9688H109.388V44.5898H116.43C116.985 44.5898 117.302 44.2726 117.302 43.6896H117.779Z" fill="#272727"/>
<path id="Fill 736" fill-rule="evenodd" clip-rule="evenodd" d="M126.707 39.7726C129.648 40.143 132.086 40.7792 132.086 43.2955C132.086 45.9714 129.384 47.0842 126.257 47.0842C124.164 47.0842 121.991 46.6872 119.791 45.8916L120.745 42.7657L121.197 42.8986C121.117 43.4018 121.381 43.7191 121.964 43.9848C123.184 44.4881 124.375 44.699 125.858 44.699C127.131 44.699 128.641 44.5147 128.641 43.5613C128.641 42.8188 127.767 42.5547 124.322 42.2092C122.175 41.9983 119.977 41.2027 119.977 38.9504C119.977 36.5138 122.732 35.1102 126.124 35.1102C127.898 35.1102 129.515 35.4541 131.688 36.2497L130.311 39.1896L129.887 38.9787C130.018 38.6597 129.938 38.2628 129.463 38.0502C128.588 37.6798 126.946 37.4937 125.965 37.4937C124.851 37.4937 123.421 37.7861 123.421 38.6597C123.421 39.2959 124.428 39.4803 125.674 39.6397L126.707 39.7726Z" fill="#272727"/>
<path id="Fill 738" fill-rule="evenodd" clip-rule="evenodd" d="M140.916 39.7726C143.857 40.143 146.296 40.7792 146.296 43.2955C146.296 45.9714 143.593 47.0842 140.466 47.0842C138.373 47.0842 136.2 46.6872 134 45.8916L134.955 42.7657L135.406 42.8986C135.326 43.4018 135.59 43.7191 136.173 43.9848C137.393 44.4881 138.585 44.699 140.069 44.699C141.34 44.699 142.85 44.5147 142.85 43.5613C142.85 42.8188 141.976 42.5547 138.531 42.2092C136.386 41.9983 134.186 41.2027 134.186 38.9504C134.186 36.5138 136.941 35.1102 140.333 35.1102C142.109 35.1102 143.724 35.4541 145.899 36.2497L144.52 39.1896L144.096 38.9787C144.229 38.6597 144.149 38.2628 143.672 38.0502C142.797 37.6798 141.156 37.4937 140.174 37.4937C139.062 37.4937 137.63 37.7861 137.63 38.6597C137.63 39.2959 138.637 39.4803 139.883 39.6397L140.916 39.7726Z" fill="#272727"/>
</g>
<g id="Logo_2">
<path id="Fill 113" fill-rule="evenodd" clip-rule="evenodd" d="M154.944 11.0479H166.895L165.235 8.14008H156.604L154.944 11.0479Z" fill="#0088B8"/>
<path id="Fill 114" fill-rule="evenodd" clip-rule="evenodd" d="M159.59 12.2121L161.249 15.1199H165.233L166.893 12.2121H159.59Z" fill="#0088B8"/>
<path id="Fill 115" fill-rule="evenodd" clip-rule="evenodd" d="M152.951 12.2121H141L142.66 15.1199H151.291L152.951 12.2121Z" fill="#0088B8"/>
<path id="Fill 116" fill-rule="evenodd" clip-rule="evenodd" d="M146.644 8.14008H142.66L141 11.0479H148.303L146.644 8.14008Z" fill="#0088B8"/>
<path id="Fill 117" fill-rule="evenodd" clip-rule="evenodd" d="M160.587 6.97881L162.579 3.48949L160.919 0.581879L157.267 6.97881H160.587Z" fill="#0088B8"/>
<path id="Fill 118" fill-rule="evenodd" clip-rule="evenodd" d="M153.947 12.7952L147.971 23.2632H151.291L155.607 15.703L153.947 12.7952Z" fill="#0088B8"/>
<path id="Fill 119" fill-rule="evenodd" clip-rule="evenodd" d="M147.309 16.2834L145.318 19.7727L146.977 22.6805L150.629 16.2834H147.309Z" fill="#0088B8"/>
<path id="Fill 120" fill-rule="evenodd" clip-rule="evenodd" d="M152.953 11.0498L146.977 0.581879L145.318 3.48972L149.633 11.0498H152.953Z" fill="#0088B8"/>
<path id="Fill 121" fill-rule="evenodd" clip-rule="evenodd" d="M154.611 19.7719L156.602 23.2612H159.922L156.27 16.864L154.611 19.7719Z" fill="#0088B8"/>
<path id="Fill 122" fill-rule="evenodd" clip-rule="evenodd" d="M154.944 12.2121L160.919 22.68L162.579 19.7722L158.263 12.2121H154.944Z" fill="#0088B8"/>
<path id="Fill 123" fill-rule="evenodd" clip-rule="evenodd" d="M159.923 0H156.603L153.947 4.65227L151.291 0H147.971L153.947 10.468L159.923 0Z" fill="#0088B8"/>
</g>
</g>
</svg>
